<?xml version="1.0" ?><!DOCTYPE svg  PUBLIC '-//W3C//DTD SVG 1.1//EN'  'http://www.w3.org/Graphics/SVG/1.1/DTD/svg11.dtd'><svg id="Lager_1" style="enable-background:new -265 388.9 64 64;" version="1.1" viewBox="-265 388.9 64 64" xml:space="preserve" xmlns="http://www.w3.org/2000/svg" xmlns:xlink="http://www.w3.org/1999/xlink"><g><path d="M-221.9,438.9h-15.2c-0.5,0-0.9-0.4-0.9-0.9v-5.7c0-0.5,0.4-0.9,0.9-0.9h7.6c0.5,0,0.9-0.4,0.9-0.9v-17   c0-0.5-0.4-0.9-0.9-0.9h-7.6c-0.5,0-0.9-0.4-0.9-0.9V406c0-0.5,0.4-0.9,0.9-0.9h15.1c0.5,0,0.9,0.4,0.9,0.9v32.1   C-221,438.5-221.4,438.9-221.9,438.9z"/><g><path d="M-236.4,429.5h-5.2c-0.4,0-0.6-0.4-0.4-0.7l4.8-6.9l-4.8-6.9c-0.2-0.3,0.1-0.7,0.4-0.7h5.2c0.2,0,0.3,0.1,0.4,0.3l5,7.3    l-5,7.3C-236,429.4-236.2,429.5-236.4,429.5z"/><path d="M-247,424.1h10.4v-4.7H-247c-0.3,0-0.5,0.2-0.5,0.5v3.8C-247.4,423.9-247.2,424.1-247,424.1z"/></g></g></svg>
